# xmcd
#
# Track frame offsets:
#	150
#	1519
#	24349
#	41401
#	60291
#	82709
#	108435
#	128829
#	146382
#	163029
#	180054
#	198606
#	218805
#	243158
#
# Disc length: 3532 seconds
# Revision: 4
# Processed by: cddbd v1.5.2PL0 Copyright (c) Steve Scherf et al.
# Submitted via: dBpowerAMP V12.0
#
DISCID=9b0dca0e
DTITLE=Various Artist - Everlasting Love
DYEAR=2005
DGENRE=Soul
TTITLE0=Vanessa Williams - Tuning
TTITLE1=Vanessa Williams and George Benson - Never Can Say Goodbye
TTITLE2=Vanessa Williams - Midnight Blue
TTITLE3=Vanessa Williams - Show and Tell
TTITLE4=Vanessa Williams - Let's Love
TTITLE5=Vanessa Williams - First Time Ever I Saw Your Face
TTITLE6=Vanessa Williams - Everlasting Love
TTITLE7=Vanessa Williams and George Benson - With You I'm Born Again
TTITLE8=Vanessa Williams - Send One Your Love
TTITLE9=Vanessa Williams - You Are Everything
TTITLE10=Vanessa Williams - One Less Bell To Answer
TTITLE11=Vanessa Williams and James "D-Train" Williams - I'll Be Good To You
TTITLE12=Vanessa Williams - Harvest For The World
TTITLE13=Vanessa Williams - Today and Everyday (Wedding Song)
EXTD=
EXTT0=
EXTT1=
EXTT2=
EXTT3=
EXTT4=
EXTT5=
EXTT6=
EXTT7=
EXTT8=
EXTT9=
EXTT10=
EXTT11=
EXTT12=
EXTT13=
PLAYORDER=
